<svg width="960" height="1200" viewBox="0 0 960 1200" fill="none" xmlns="http://www.w3.org/2000/svg">
<rect width="960" height="1200" rx="48" fill="#070606"/>
<rect x="42" y="42" width="876" height="1116" rx="36" fill="url(#paint0_linear_1_2)" fill-opacity="0.3" stroke="#FFE9D6" stroke-opacity="0.22"/>
<circle cx="690" cy="236" r="176" fill="url(#paint1_radial_1_2)" fill-opacity="0.75"/>
<ellipse cx="478" cy="988" rx="280" ry="118" fill="#1E120B"/>
<path d="M480 286C593.77 286 686 378.23 686 492V590H274V492C274 378.23 366.23 286 480 286Z" fill="#F6E3D3" fill-opacity="0.12"/>
<circle cx="480" cy="318" r="136" fill="#F6E3D3" fill-opacity="0.16"/>
<path d="M277 596H683V973C683 1005.58 656.58 1032 624 1032H336C303.42 1032 277 1005.58 277 973V596Z" fill="#F6E3D3" fill-opacity="0.18"/>
<path d="M196 132L358 92" stroke="#FFD2AF" stroke-opacity="0.28" stroke-width="2"/>
<path d="M662 1040L814 986" stroke="#FFD2AF" stroke-opacity="0.28" stroke-width="2"/>
<text x="88" y="1088" fill="#F7F1EB" fill-opacity="0.78" font-family="Avenir Next, Trebuchet MS, sans-serif" font-size="44" letter-spacing="0.18em">HEADSHOT PLACEHOLDER</text>
<defs>
<linearGradient id="paint0_linear_1_2" x1="126" y1="72" x2="854" y2="1118" gradientUnits="userSpaceOnUse">
<stop stop-color="#FFE1C6"/>
<stop offset="1" stop-color="#FFB677" stop-opacity="0.1"/>
</linearGradient>
<radialGradient id="paint1_radial_1_2" cx="0" cy="0" r="1" gradientUnits="userSpaceOnUse" gradientTransform="translate(690 236) rotate(90) scale(176)">
<stop stop-color="#FFE2C5"/>
<stop offset="1" stop-color="#FFE2C5" stop-opacity="0"/>
</radialGradient>
</defs>
</svg>
